<?xml version="1.0" standalone="no"?>
<!DOCTYPE svg PUBLIC "-//W3C//DTD SVG 20010904//EN"
 "http://www.w3.org/TR/2001/REC-SVG-20010904/DTD/svg10.dtd">
<svg version="1.0" xmlns="http://www.w3.org/2000/svg"
 width="2048.000000pt" height="2048.000000pt" viewBox="0 0 2048.000000 2048.000000"
 preserveAspectRatio="xMidYMid meet">
<metadata>
Created by potrace 1.14, written by Peter Selinger 2001-2017
</metadata>
<g transform="translate(0.000000,2048.000000) scale(0.100000,-0.100000)"
fill="#000000" stroke="none">
<path d="M9940 13994 c-19 -2 -80 -9 -135 -14 -626 -66 -1235 -332 -1609 -704
-403 -401 -604 -896 -582 -1436 34 -877 520 -1534 1386 -1875 196 -77 467
-170 1008 -346 306 -99 618 -205 692 -236 439 -177 719 -400 841 -668 111
-245 100 -585 -27 -854 -152 -322 -436 -536 -825 -619 -161 -35 -288 -45 -503
-39 -316 8 -510 53 -754 176 -382 192 -756 544 -1060 997 -135 202 -321 553
-453 854 l-68 155 -211 3 -210 2 0 -27 c0 -16 14 -550 30 -1188 16 -638 30
-1188 30 -1222 l0 -63 207 0 208 0 170 169 170 170 149 -75 c319 -158 757
-305 1121 -374 600 -114 1323 -98 1867 41 553 140 1069 446 1377 814 211 254
369 577 437 900 32 150 44 460 24 637 -78 707 -452 1213 -1157 1567 -204 102
-462 196 -1283 466 -555 184 -723 246 -910 340 -372 187 -561 380 -646 660
-26 84 -28 102 -28 275 0 173 2 191 27 273 50 163 116 274 235 399 162 169
347 272 592 330 124 29 444 36 598 14 462 -68 864 -347 1182 -821 167 -248
374 -662 555 -1107 l48 -118 203 0 c111 0 205 4 208 9 3 4 -3 523 -14 1152
-11 629 -20 1159 -20 1177 l0 32 -212 0 -213 0 -147 -147 -147 -147 -128 61
c-409 196 -860 334 -1274 389 -117 15 -657 28 -749 18z"/>
</g>
</svg>
